<svg xmlns="http://www.w3.org/2000/svg" version="1.1" xmlns:xlink="http://www.w3.org/1999/xlink" xmlns:svgjs="http://svgjs.dev/svgjs" width="2000" height="454" viewBox="0 0 2000 454"><g transform="matrix(1,0,0,1,-1.2121212121212466,1.0305861618730603)"><svg viewBox="0 0 396 90" data-background-color="#edbbba" preserveAspectRatio="xMidYMid meet" height="454" width="2000" xmlns="http://www.w3.org/2000/svg" xmlns:xlink="http://www.w3.org/1999/xlink"><g id="tight-bounds" transform="matrix(1,0,0,1,0.2400000000000091,-0.20430122151668684)"><svg viewBox="0 0 395.52 90.40860244303335" height="90.40860244303335" width="395.52"><g><svg viewBox="0 0 529.6743693376327 121.07382555044106" height="90.40860244303335" width="395.52"><g transform="matrix(1,0,0,1,0,16.733068509503795)"><svg viewBox="0 0 395.52 87.60768853143347" height="87.60768853143347" width="395.52"><g id="textblocktransform"><svg viewBox="0 0 395.52 87.60768853143347" height="87.60768853143347" width="395.52" id="textblock"><g><svg viewBox="0 0 395.52 55.40818968125395" height="55.40818968125395" width="395.52"><g transform="matrix(1,0,0,1,0,0)"><svg width="395.52" viewBox="-0.05 -33.5 280.72 39.300000000000004" height="55.40818968125395" data-palette-color="#374151"><path d="M7.65 5.8L7.65 5.8Q-0.05 5.15-0.05-2.1L-0.05-2.1Q-0.05-6.4 2.65-11.2L2.65-11.2Q4.25-14.1 6.68-16.85 9.1-19.6 11.98-21.83 14.85-24.05 17.88-25.35 20.9-26.65 23.7-26.65L23.7-26.65Q28.65-26.65 28.65-23L28.65-23Q28.65-20.55 27.15-17.55L27.15-17.55Q25.65-14.55 24.1-13.75L24.1-13.75Q23.95-13.7 23.75-13.7L23.75-13.7Q23.6-13.7 23.6-13.8L23.6-13.8 25.25-16.5Q26.95-19.3 26.95-21.4L26.95-21.4Q26.95-22.9 26.15-24.25 25.35-25.6 23.3-25.6L23.3-25.6Q20.8-25.6 18.18-24.2 15.55-22.8 13.1-20.5 10.65-18.2 8.65-15.43 6.65-12.65 5.45-9.95L5.45-9.95Q2.9-4.2 2.9-0.65L2.9-0.65Q2.9 4.7 8.35 4.7L8.35 4.7Q13.55 4.7 22.45-2L22.45-2Q24.5-3.55 27.73-6.35 30.95-9.15 35.3-13.15L35.3-13.15Q34.7-13.1 33.8-13.03 32.9-12.95 31.7-12.75L31.7-12.75Q31.2-12.65 30.75-12.58 30.3-12.5 29.9-12.5L29.9-12.5Q28.9-12.6 29.05-13L29.05-13Q29.25-14.85 30.95-14.85L30.95-14.85Q32.5-14.65 33.88-14.55 35.25-14.45 36.5-14.45L36.5-14.45Q38.45-16.25 41.68-19.48 44.9-22.7 49.35-27.4L49.35-27.4Q55.1-33.45 56.35-33.45L56.35-33.45Q56.9-33.45 56.9-32.45L56.9-32.45Q56.9-32.05 56.8-31.45 56.7-30.85 56.5-30.05L56.5-30.05Q56-28.15 55.45-27.75L55.45-27.75Q53.9-26.65 52.88-24.93 51.85-23.2 50.8-21.1L50.8-21.1Q49.75-18.95 48.88-17.28 48-15.6 47.3-14.3L47.3-14.3 52.15-14.4Q53.95-14.4 53.95-14.15L53.95-14.15Q53.95-14.1 53.85-14L53.85-14Q53-13.45 46.65-13L46.65-13Q42-3.95 42-0.6L42-0.6Q42 1.7 43.45 1.7L43.45 1.7Q44 1.7 44.85 1L44.85 1Q45.65 0.35 45.85 0.35L45.85 0.35Q45.85 0.25 45.9 0.3 45.95 0.35 45.85 0.35L45.85 0.35Q45.6 1.25 44.38 1.98 43.15 2.7 41.8 2.7L41.8 2.7Q40.55 2.7 40.15 1.9 39.75 1.1 39.75-0.3L39.75-0.3Q39.75-5.35 43.6-13.15L43.6-13.15 37.6-13Q30.9-6.45 24.15-1.5L24.15-1.5Q13.4 6.3 7.65 5.8ZM38.5-14.5L44.05-14.45Q44.65-15.6 46.45-18.63 48.25-21.65 51.3-26.5L51.3-26.5 38.5-14.5ZM63.75 0.1L63.75 0.1Q62.4 0.1 61.85-0.68 61.3-1.45 61.3-2.6L61.3-2.6Q61.3-5.5 63.3-8.8L63.3-8.8 66.5-14Q63.1-11.5 59.75-7.75L59.75-7.75Q58.85-6.75 57.72-5.4 56.6-4.05 55.25-2.3L55.25-2.3Q53.45 0.05 53.1 0.05L53.1 0.05Q52.4 0.05 51.95-0.58 51.5-1.2 51.5-1.7L51.5-1.7Q51.5-2.1 51.75-3.18 52-4.25 52.35-5.05L52.35-5.05Q52.7-5.9 53.07-6.73 53.45-7.55 53.8-8.35L53.8-8.35 50.8-5.2Q50.7-5.1 50.2-4.6 49.7-4.1 49.4-4.1L49.4-4.1Q49.15-4.1 49.15-4.45L49.15-4.45Q49.15-4.55 49.22-4.73 49.3-4.9 49.55-5.15L49.55-5.15Q50.3-5.9 51.1-6.75 51.9-7.6 52.75-8.7L52.75-8.7Q53.2-9.25 54.1-10.38 55-11.5 56.07-12.8 57.15-14.1 58.1-15.2L58.1-15.2Q58.35-15.55 58.65-15.68 58.95-15.8 59.05-15.8L59.05-15.8Q60.4-15.8 60.4-14.75L60.4-14.75Q60.4-14.45 60.25-14.15L60.25-14.15Q55.75-7.95 54.85-4.7L54.85-4.7Q60.65-10.5 64.17-13.43 67.7-16.35 69.2-16.35L69.2-16.35Q70-16.35 70.42-16.1 70.85-15.85 70.85-15.15L70.85-15.15Q70.85-14.9 70.8-14.75L70.8-14.75Q70.65-14.4 68.75-11.95L68.75-11.95Q67.6-10.55 66.72-9.4 65.85-8.25 65.3-7.4L65.3-7.4Q64.4-6 63.95-4.78 63.5-3.55 63.5-2.7L63.5-2.7Q63.5-2.35 63.6-1.85 63.7-1.35 64.2-1.35L64.2-1.35Q65.35-1.35 67.8-3.35L67.8-3.35Q68.95-4.35 69.95-5.38 70.95-6.4 71.85-7.4L71.85-7.4Q72.05-7.6 72.5-8.18 72.95-8.75 73.05-8.75L73.05-8.75Q73.25-8.75 73.25-8.35L73.25-8.35Q73.25-8.15 73.02-7.68 72.8-7.2 72.55-6.95L72.55-6.95Q72-6.3 70.92-5.15 69.85-4 68.52-2.8 67.2-1.6 65.95-0.75 64.7 0.1 63.75 0.1ZM94.99 4.75L94.99 4.75Q92.94 4.75 89.89 2.3L89.89 2.3Q87.74 1.95 86.22 1.38 84.69 0.8 83.69 0L83.69 0Q82.29-1.2 81.24-3.2 80.19-5.2 80.19-7.05L80.19-7.05Q80.19-8.45 80.84-9.55L80.84-9.55Q82.34-12.2 84.64-12.2L84.64-12.2Q86.39-12.2 86.69-9.25L86.69-9.25Q87.04-6.5 87.27-4.88 87.49-3.25 87.64-2.75L87.64-2.75Q88.39-0.3 90.19 1.4L90.19 1.4Q92.29 1.85 94.74 1.85L94.74 1.85Q100.14 1.85 105.09-0.2L105.09-0.2Q107.19-1.1 109.19-2.55 111.19-4 112.49-5.75 113.79-7.5 113.79-9.15L113.79-9.15Q113.79-11.5 109.64-12.8L109.64-12.8 100.84-14.8Q98.14-15.4 96.52-16.93 94.89-18.45 94.89-20.4L94.89-20.4Q94.89-23.4 98.64-26.4L98.64-26.4Q100.54-27.95 103.09-29.03 105.64-30.1 108.47-30.68 111.29-31.25 113.89-31.25L113.89-31.25Q117.59-31.25 120.22-30.1 122.84-28.95 123.49-26.75L123.49-26.75Q123.64-26.25 123.64-25.65L123.64-25.65Q123.64-22.6 120.59-21.4L120.59-21.4Q118.74-20.65 117.44-20.65L117.44-20.65Q116.64-20.65 116.19-20.95L116.19-20.95Q116.09-21.05 116.09-21.2L116.09-21.2Q116.09-21.55 117.49-21.6L117.49-21.6Q118.34-21.65 118.89-21.75 119.44-21.85 119.69-21.95L119.69-21.95Q121.59-22.95 121.59-24.9L121.59-24.9Q121.59-25.9 121.04-27L121.04-27Q119.49-29.85 113.29-29.85L113.29-29.85Q111.04-29.85 108.64-29.38 106.24-28.9 104.09-27.98 101.94-27.05 100.44-25.65L100.44-25.65Q97.84-23.25 97.84-21.35L97.84-21.35Q97.84-19.9 99.27-18.78 100.69-17.65 103.59-17.1L103.59-17.1 109.49-16Q112.89-15.35 114.99-14.08 117.09-12.8 117.09-10.2L117.09-10.2Q117.09-7.9 115.94-5.9 114.79-3.9 112.87-2.33 110.94-0.75 108.49 0.3L108.49 0.3Q102.94 2.75 95.39 2.75L95.39 2.75Q94.44 2.75 93.49 2.7 92.54 2.65 91.64 2.55L91.64 2.55Q92.34 2.95 93.42 3.35 94.49 3.75 95.89 4.1L95.89 4.1Q96.04 4.15 96.04 4.3L96.04 4.3Q96.04 4.75 94.99 4.75ZM88.39 0.9L88.39 0.9Q87.04-0.6 86.29-2.2L86.29-2.2Q85.19-4.7 84.64-8.35L84.64-8.35Q84.24-11 83.79-11L83.79-11Q83.39-11 82.72-10.4 82.04-9.8 82.04-7.85L82.04-7.85Q82.04-4.05 84.74-1.25L84.74-1.25Q86.09 0.15 88.39 0.9ZM129.49-17.2L129.49-17.2Q128.64-17.2 128.02-17.75 127.39-18.3 127.39-19L127.39-19Q127.39-20.4 129.29-20.4L129.29-20.4Q129.99-20.4 130.69-19.93 131.39-19.45 131.39-18.75L131.39-18.75Q131.39-18.15 130.74-17.68 130.09-17.2 129.49-17.2ZM120.24 0.55L120.24 0.55Q119.14 0.55 118.42-0.18 117.69-0.9 117.69-2.75L117.69-2.75Q117.69-3.8 118.17-5.18 118.64-6.55 119.37-7.95 120.09-9.35 120.79-10.45L120.79-10.45Q123.59-15 125.39-15.05L125.39-15.05Q125.84-15.05 126.49-14.68 127.14-14.3 127.14-13.85L127.14-13.85Q127.14-13.85 123.34-8.95L123.34-8.95Q119.59-4.1 119.59-2.05L119.59-2.05Q119.59-0.45 120.84-0.45L120.84-0.45Q121.64-0.45 122.92-1.13 124.19-1.8 125.59-2.85 126.99-3.9 128.27-5.1 129.54-6.3 130.34-7.3L130.34-7.3Q130.84-7.95 131.22-8.2 131.59-8.45 131.69-8.45L131.69-8.45Q131.89-8.45 131.89-8.15L131.89-8.15Q131.89-7.9 131.32-7.15 130.74-6.4 129.74-5.4L129.74-5.4Q128.54-4.2 127.09-2.8 125.64-1.4 123.94-0.43 122.24 0.55 120.24 0.55ZM142.49 0.1L142.49 0.1Q141.14 0.1 140.59-0.68 140.04-1.45 140.04-2.6L140.04-2.6Q140.04-5.5 142.04-8.8L142.04-8.8 145.24-14Q141.84-11.5 138.49-7.75L138.49-7.75Q137.59-6.75 136.46-5.4 135.34-4.05 133.99-2.3L133.99-2.3Q132.19 0.05 131.84 0.05L131.84 0.05Q131.14 0.05 130.69-0.58 130.24-1.2 130.24-1.7L130.24-1.7Q130.24-2.1 130.49-3.18 130.74-4.25 131.09-5.05L131.09-5.05Q131.44-5.9 131.81-6.73 132.19-7.55 132.54-8.35L132.54-8.35 129.54-5.2Q129.44-5.1 128.94-4.6 128.44-4.1 128.14-4.1L128.14-4.1Q127.89-4.1 127.89-4.45L127.89-4.45Q127.89-4.55 127.96-4.73 128.04-4.9 128.29-5.15L128.29-5.15Q129.04-5.9 129.84-6.75 130.64-7.6 131.49-8.7L131.49-8.7Q131.94-9.25 132.84-10.38 133.74-11.5 134.81-12.8 135.89-14.1 136.84-15.2L136.84-15.2Q137.09-15.55 137.39-15.68 137.69-15.8 137.79-15.8L137.79-15.8Q139.14-15.8 139.14-14.75L139.14-14.75Q139.14-14.45 138.99-14.15L138.99-14.15Q134.49-7.95 133.59-4.7L133.59-4.7Q139.39-10.5 142.91-13.43 146.44-16.35 147.94-16.35L147.94-16.35Q148.74-16.35 149.16-16.1 149.59-15.85 149.59-15.15L149.59-15.15Q149.59-14.9 149.54-14.75L149.54-14.75Q149.39-14.4 147.49-11.95L147.49-11.95Q146.34-10.55 145.46-9.4 144.59-8.25 144.04-7.4L144.04-7.4Q143.14-6 142.69-4.78 142.24-3.55 142.24-2.7L142.24-2.7Q142.24-2.35 142.34-1.85 142.44-1.35 142.94-1.35L142.94-1.35Q144.09-1.35 146.54-3.35L146.54-3.35Q147.69-4.35 148.69-5.38 149.69-6.4 150.59-7.4L150.59-7.4Q150.79-7.6 151.24-8.18 151.69-8.75 151.79-8.75L151.79-8.75Q151.99-8.75 151.99-8.35L151.99-8.35Q151.99-8.15 151.76-7.68 151.54-7.2 151.29-6.95L151.29-6.95Q150.74-6.3 149.66-5.15 148.59-4 147.26-2.8 145.94-1.6 144.69-0.75 143.44 0.1 142.49 0.1ZM148.54 0.25L148.54 0.25Q147.09 0.25 147.09-0.6L147.09-0.6Q147.09-1.1 147.69-2.2L147.69-2.2Q149.99-6.3 151.81-9.47 153.64-12.65 155.04-14.85L155.04-14.85Q160.99-24.4 163.44-25.2L163.44-25.2Q163.54-25.2 163.59-25.23 163.64-25.25 163.69-25.25L163.69-25.25Q164.34-25.25 164.54-24.2L164.54-24.2Q164.39-23.15 159.34-16.6L159.34-16.6Q156.69-13.25 155.21-11.08 153.74-8.9 153.39-7.9L153.39-7.9Q155.04-9.1 156.94-10.45 158.84-11.8 160.64-13.03 162.44-14.25 163.89-15.03 165.34-15.8 166.14-15.9L166.14-15.9Q166.24-15.9 166.39-15.93 166.54-15.95 166.59-15.95L166.59-15.95Q167.99-15.95 167.99-14.65L167.99-14.65Q167.99-14.3 167.09-13.1 166.19-11.9 164.34-9.4L164.34-9.4Q161.04-5 161.04-2.8L161.04-2.8Q161.04-1.65 161.89-1.65L161.89-1.65Q162.79-1.7 163.96-2.45 165.14-3.2 166.34-4.3 167.54-5.4 168.51-6.48 169.49-7.55 169.99-8.15L169.99-8.15Q170.44-8.6 170.69-8.6L170.69-8.6Q170.89-8.6 170.89-8.4L170.89-8.4Q170.89-8 170.49-7.45L170.49-7.45Q169.89-6.7 168.71-5.5 167.54-4.3 166.16-3.08 164.79-1.85 163.56-1.03 162.34-0.2 161.74-0.2L161.74-0.2Q158.79-0.2 158.79-3.65L158.79-3.65Q158.79-5.6 160.59-8.75L160.59-8.75Q161.29-9.95 162.04-11.15 162.79-12.35 163.54-13.55L163.54-13.55Q157.14-10.35 151.94-4.1L151.94-4.1Q151.29-3.2 150.59-2.18 149.89-1.15 149.34-0.45 148.79 0.25 148.54 0.25ZM199.78 2.35L199.78 2.35Q191.88 2.35 189.03-3.05L189.03-3.05Q183.88 1.25 181.68 1.25L181.68 1.25Q180.63 1.25 180.06 0.25 179.48-0.75 179.48-2L179.48-2Q179.48-5 181.78-9L181.78-9Q182.78-10.75 183.98-12.2 185.18-13.65 186.68-13.65L186.68-13.65Q188.13-13.65 188.88-11.25L188.88-11.25 190.38-6.45Q191.18-7.3 192.16-8.53 193.13-9.75 194.33-11.4L194.33-11.4 198.78-17.4Q206.98-28.05 209.53-29.05L209.53-29.05Q210.43-29.4 211.33-29.4L211.33-29.4Q212.33-29.4 212.96-28.98 213.58-28.55 213.58-28L213.58-28Q213.58-27.1 212.13-26.95L212.13-26.95Q210.63-26.1 206.28-21.9L206.28-21.9Q204.28-19.95 203.06-18.68 201.83-17.4 201.38-16.75L201.38-16.75Q195.78-8.95 191.03-4.75L191.03-4.75Q194.08 1.3 200.18 1.3L200.18 1.3Q202.48 1.3 204.86 0.33 207.23-0.65 209.26-2.25 211.28-3.85 212.53-5.83 213.78-7.8 213.78-9.75L213.78-9.75Q213.78-11.8 212.33-13.45 210.88-15.1 208.78-15.8L208.78-15.8Q208.78-15.8 208.03-15.9 207.28-16 205.73-16.2L205.73-16.2Q203.38-16.5 203.38-17.15L203.38-17.15Q203.38-17.6 203.96-17.95 204.53-18.3 205.13-18.3L205.13-18.3Q205.58-18.3 206.18-18.1 206.78-17.9 207.26-17.73 207.73-17.55 207.73-17.55L207.73-17.55Q208.13-17.5 208.63-17.48 209.13-17.45 209.63-17.45L209.63-17.45Q212.93-17.45 215.63-18.5L215.63-18.5Q218.23-19.55 219.43-21.4 220.63-23.25 220.63-25.7L220.63-25.7Q220.63-28.2 219.06-29.65 217.48-31.1 214.91-31.73 212.33-32.35 209.33-32.35L209.33-32.35Q203.48-32.35 198.21-30.65 192.93-28.95 189.08-25L189.08-25Q186.13-21.95 186.13-19.9L186.13-19.9Q186.13-18.45 186.88-17.45L186.88-17.45Q187.08-17.2 187.33-16.95 187.58-16.7 187.93-16.45L187.93-16.45Q188.18-16.3 187.63-16.3L187.63-16.3Q184.53-17 184.53-20.45L184.53-20.45Q184.53-23.9 188.03-26.95L188.03-26.95Q190.73-29.3 194.21-30.75 197.68-32.2 201.56-32.85 205.43-33.5 209.23-33.5L209.23-33.5Q211.93-33.5 214.43-33.1 216.93-32.7 218.93-31.78 220.93-30.85 222.11-29.35 223.28-27.85 223.28-25.65L223.28-25.65Q223.28-22.55 221.63-20.7 219.98-18.85 217.18-17.85L217.18-17.85Q213.88-16.7 210.08-16.65L210.08-16.65Q212.18-16.55 213.76-15.55 215.33-14.55 216.21-12.95 217.08-11.35 217.08-9.45L217.08-9.45Q217.08-6.9 215.56-4.73 214.03-2.55 211.48-0.98 208.93 0.6 205.88 1.48 202.83 2.35 199.78 2.35ZM182.33 0.1L182.33 0.1Q183.93 0.1 188.48-4.45L188.48-4.45 188.33-4.65Q186.33-11.3 185.13-11.3L185.13-11.3Q185.08-11.3 184.88-11.2L184.88-11.2Q181.18-5.85 181.18-2.6L181.18-2.6Q181.18-1.9 181.46-0.9 181.73 0.1 182.33 0.1ZM218.18 0.25L218.18 0.25Q216.73 0.25 216.73-0.6L216.73-0.6Q216.73-1.1 217.33-2.2L217.33-2.2Q219.63-6.3 221.45-9.47 223.28-12.65 224.68-14.85L224.68-14.85Q230.63-24.4 233.08-25.2L233.08-25.2Q233.18-25.2 233.23-25.23 233.28-25.25 233.33-25.25L233.33-25.25Q233.98-25.25 234.18-24.2L234.18-24.2Q234.03-23.15 228.98-16.6L228.98-16.6Q226.33-13.25 224.85-11.08 223.38-8.9 223.03-7.9L223.03-7.9Q224.68-9.1 226.58-10.45 228.48-11.8 230.28-13.03 232.08-14.25 233.53-15.03 234.98-15.8 235.78-15.9L235.78-15.9Q235.88-15.9 236.03-15.93 236.18-15.95 236.23-15.95L236.23-15.95Q237.63-15.95 237.63-14.65L237.63-14.65Q237.63-14.3 236.73-13.1 235.83-11.9 233.98-9.4L233.98-9.4Q230.68-5 230.68-2.8L230.68-2.8Q230.68-1.65 231.53-1.65L231.53-1.65Q232.43-1.7 233.6-2.45 234.78-3.2 235.98-4.3 237.18-5.4 238.15-6.48 239.13-7.55 239.63-8.15L239.63-8.15Q240.08-8.6 240.33-8.6L240.33-8.6Q240.53-8.6 240.53-8.4L240.53-8.4Q240.53-8 240.13-7.45L240.13-7.45Q239.53-6.7 238.35-5.5 237.18-4.3 235.8-3.08 234.43-1.85 233.2-1.03 231.98-0.2 231.38-0.2L231.38-0.2Q228.43-0.2 228.43-3.65L228.43-3.65Q228.43-5.6 230.23-8.75L230.23-8.75Q230.93-9.95 231.68-11.15 232.43-12.35 233.18-13.55L233.18-13.55Q226.78-10.35 221.58-4.1L221.58-4.1Q220.93-3.2 220.23-2.18 219.53-1.15 218.98-0.45 218.43 0.25 218.18 0.25ZM237.43 5.1L237.43 5.1Q236.83 5.1 236.83 4.55L236.83 4.55Q236.83 4.4 236.93 4.3L236.93 4.3Q241.58-3.05 246.98-8.6L246.98-8.6Q247.03-9.8 247.08-11.73 247.13-13.65 247.23-16.3L247.23-16.3Q246.68-16.2 245.38-14.63 244.08-13.05 242.33-10.5L242.33-10.5Q240.63-8 239.15-6.35 237.68-4.7 237.48-4.55L237.48-4.55Q237.13-4.25 236.83-4.25L236.83-4.25Q236.58-4.25 236.58-4.5L236.58-4.5Q236.58-4.7 236.75-4.93 236.93-5.15 237.58-5.85L237.58-5.85Q238.48-6.85 239.13-7.63 239.78-8.4 240.4-9.3 241.03-10.2 241.88-11.5L241.88-11.5Q242.43-12.3 243.25-13.53 244.08-14.75 244.95-15.9 245.83-17.05 246.48-17.6L246.48-17.6Q246.98-18.05 247.55-18.25 248.13-18.45 248.63-18.45L248.63-18.45Q249.23-18.45 249.75-18.2 250.28-17.95 250.13-17.1L250.13-17.1Q250.13-17.05 249.9-15.53 249.68-14 249.48-11.05L249.48-11.05Q250.43-11.95 253.25-14.43 256.08-16.9 260.53-20.7L260.53-20.7Q260.63-20.8 260.78-20.8L260.78-20.8Q261.13-20.8 261.53-20.38 261.93-19.95 261.93-19.5L261.93-19.5Q261.93-19.1 261.53-18.7L261.53-18.7Q259.98-17.45 255.53-14.2L255.53-14.2Q253.53-12.8 251.95-11.5 250.38-10.2 249.38-9.25L249.38-9.25Q249.33-8.75 249.33-8.25 249.33-7.75 249.33-7.3L249.33-7.3Q249.33-4.2 249.95-2.68 250.58-1.15 251.98-1.15L251.98-1.15Q253.53-1.15 255.9-3.13 258.28-5.1 260.78-8L260.78-8Q261.28-8.5 261.53-8.5L261.53-8.5Q261.78-8.5 261.78-8.2L261.78-8.2Q261.78-8.1 261.7-7.9 261.63-7.7 261.38-7.4L261.38-7.4Q259.78-5.55 257.9-3.65 256.03-1.75 254.13-0.48 252.23 0.8 250.48 0.8L250.48 0.8Q248.98 0.8 248.23-0.33 247.48-1.45 247.25-3.2 247.03-4.95 246.98-6.85L246.98-6.85Q240.88-0.35 237.83 4.9L237.83 4.9Q237.68 5.1 237.43 5.1ZM258.32 0.25L258.32 0.25Q256.87 0.25 256.87-0.6L256.87-0.6Q256.87-1.1 257.47-2.2L257.47-2.2Q259.77-6.3 261.6-9.47 263.42-12.65 264.82-14.85L264.82-14.85Q270.77-24.4 273.22-25.2L273.22-25.2Q273.32-25.2 273.37-25.23 273.42-25.25 273.47-25.25L273.47-25.25Q274.12-25.25 274.32-24.2L274.32-24.2Q274.17-23.15 269.12-16.6L269.12-16.6Q266.47-13.25 265-11.08 263.52-8.9 263.17-7.9L263.17-7.9Q264.82-9.1 266.72-10.45 268.62-11.8 270.42-13.03 272.22-14.25 273.67-15.03 275.12-15.8 275.92-15.9L275.92-15.9Q276.02-15.9 276.17-15.93 276.32-15.95 276.37-15.95L276.37-15.95Q277.77-15.95 277.77-14.65L277.77-14.65Q277.77-14.3 276.87-13.1 275.97-11.9 274.12-9.4L274.12-9.4Q270.82-5 270.82-2.8L270.82-2.8Q270.82-1.65 271.67-1.65L271.67-1.65Q272.57-1.7 273.75-2.45 274.92-3.2 276.12-4.3 277.32-5.4 278.3-6.48 279.27-7.55 279.77-8.15L279.77-8.15Q280.22-8.6 280.47-8.6L280.47-8.6Q280.67-8.6 280.67-8.4L280.67-8.4Q280.67-8 280.27-7.45L280.27-7.45Q279.67-6.7 278.5-5.5 277.32-4.3 275.95-3.08 274.57-1.85 273.35-1.03 272.12-0.2 271.52-0.2L271.52-0.2Q268.57-0.2 268.57-3.65L268.57-3.65Q268.57-5.6 270.37-8.75L270.37-8.75Q271.07-9.95 271.82-11.15 272.57-12.35 273.32-13.55L273.32-13.55Q266.92-10.35 261.72-4.1L261.72-4.1Q261.07-3.2 260.37-2.18 259.67-1.15 259.12-0.45 258.57 0.25 258.32 0.25Z" opacity="1" transform="matrix(1,0,0,1,0,0)" fill="#000000" class="wordmark-text-0" data-fill-palette-color="primary" id="text-0"></path></svg></g></svg></g><g transform="matrix(1,0,0,1,163.310208,68.48873346844566)"><svg viewBox="0 0 232.209792 19.118955062987798" height="19.118955062987798" width="232.209792"><g transform="matrix(1,0,0,1,0,0)"><svg width="232.209792" viewBox="0.75 -32.35 454.8 37.45" height="19.118955062987798" data-palette-color="#374151"><path d="M14.65-11.6L14.6-9.35 14.7 0 10.75 0 10.95-9.35 10.9-11.45 0.75-32.05 5.05-32.05 5.7-30.25 12.7-15.85 13.05-15.85 20.75-30.15 21.5-32.05 25.7-32.05 14.65-11.6ZM39-25.2Q44.45-25.2 47.37-22 50.3-18.8 50.3-12.95L50.3-12.95Q50.3-6.6 47.17-3.13 44.05 0.35 38.25 0.35L38.25 0.35Q32.85 0.35 29.9-2.93 26.95-6.2 26.95-12.25L26.95-12.25Q26.95-18.45 30.1-21.83 33.25-25.2 39-25.2L39-25.2ZM38.65-22.05Q34.7-22.05 32.77-19.8 30.85-17.55 30.85-12.7L30.85-12.7Q30.85-7.5 32.75-5.15 34.65-2.8 38.55-2.8L38.55-2.8Q42.55-2.8 44.5-5.1 46.45-7.4 46.45-12.3L46.45-12.3Q46.45-17.35 44.52-19.7 42.6-22.05 38.65-22.05L38.65-22.05ZM76.34-24.9L76.2-12.25 76.2-8.65Q76.25-4.4 73.62-2.05 71 0.3 66.09 0.3L66.09 0.3Q61.25 0.3 58.7-2.02 56.15-4.35 56.25-8.65L56.25-8.65 56.3-12.45 56.25-24.9 60-24.9 59.8-9.25Q59.75-6.1 61.37-4.5 63-2.9 66.25-2.9L66.25-2.9Q69.45-2.9 71.09-4.5 72.75-6.1 72.7-9.25L72.7-9.25 72.55-24.9 76.34-24.9ZM95.94-10.05Q98.99-5.4 102.69-0.9L102.69-0.9 102.64-0.4Q100.54 0.25 99.19 0.35L99.19 0.35 98.54-0.05Q94.74-5.8 92.79-9.1L92.79-9.1 88.09-9.05 88.09-7.8 88.19 0 84.49 0 84.64-7.5 84.49-24.9 92.99-24.95Q96.94-24.95 99.07-23.1 101.19-21.25 101.19-17.75L101.19-17.75Q101.19-15.2 99.82-13.2 98.44-11.2 95.94-10.05L95.94-10.05ZM88.19-21.9L88.14-12.15 92.84-12Q97.29-13.25 97.29-17.45L97.29-17.45Q97.29-19.65 95.99-20.75 94.69-21.85 92.04-21.95L92.04-21.95 88.19-21.9ZM123.89-32.05L123.69-10.6 123.79-5.9Q123.79-2.1 121.89 0.38 119.99 2.85 115.29 5.1L115.29 5.1 113.74 2.85 113.74 2.35Q117.19 0.5 118.64-1.3 120.09-3.1 120.09-5.85L120.09-5.85 120.09-10.2 119.89-28.8 113.74-28.75 113.34-29.1 113.59-32.05 123.89-32.05ZM141.99-25.2Q147.44-25.2 150.36-22 153.29-18.8 153.29-12.95L153.29-12.95Q153.29-6.6 150.16-3.13 147.04 0.35 141.24 0.35L141.24 0.35Q135.84 0.35 132.89-2.93 129.94-6.2 129.94-12.25L129.94-12.25Q129.94-18.45 133.09-21.83 136.24-25.2 141.99-25.2L141.99-25.2ZM141.64-22.05Q137.69-22.05 135.76-19.8 133.84-17.55 133.84-12.7L133.84-12.7Q133.84-7.5 135.74-5.15 137.64-2.8 141.54-2.8L141.54-2.8Q145.54-2.8 147.49-5.1 149.44-7.4 149.44-12.3L149.44-12.3Q149.44-17.35 147.51-19.7 145.59-22.05 141.64-22.05L141.64-22.05ZM171.73-12.95Q177.28-11.85 177.28-7.05L177.28-7.05Q177.28-3.45 174.48-1.65 171.68 0.15 166.28 0.15L166.28 0.15Q163.03 0.15 160.03 0L160.03 0 160.18-7.5 160.03-24.9 167.83-24.95Q171.58-24.95 173.66-23.38 175.73-21.8 175.73-18.9L175.73-18.9Q175.73-16.75 174.68-15.25 173.63-13.75 171.73-12.95L171.73-12.95ZM171.78-18.45Q171.78-20.3 170.58-21.15 169.38-22 166.73-22L166.73-22 163.68-22 163.63-14.3 168.08-14.15Q169.93-14.55 170.86-15.58 171.78-16.6 171.78-18.45L171.78-18.45ZM166.73-2.7Q169.98-2.7 171.71-3.83 173.43-4.95 173.43-7.15L173.43-7.15Q173.43-8.95 172.23-9.95 171.03-10.95 168.58-11.3L168.58-11.3 163.63-11.25 163.58-7.8 163.68-2.85Q165.23-2.7 166.73-2.7L166.73-2.7ZM193.13-15L193.48-14.65 193.48-12.15 181.43-10.4 181.03-10.8 181.03-13.3 193.13-15ZM219.43-32.35Q226.03-32.35 229.55-28.3 233.08-24.25 233.08-16.65L233.08-16.65Q233.08-8.45 229.33-4.03 225.58 0.4 218.63 0.4L218.63 0.4Q212.13 0.4 208.6-3.8 205.08-8 205.08-15.75L205.08-15.75Q205.08-23.75 208.8-28.05 212.53-32.35 219.43-32.35L219.43-32.35ZM219.18-29.1Q209.18-29.1 209.18-16.2L209.18-16.2Q209.18-9.35 211.6-6.05 214.03-2.75 218.93-2.75L218.93-2.75Q228.93-2.75 228.93-15.9L228.93-15.9Q228.93-22.6 226.5-25.85 224.08-29.1 219.18-29.1L219.18-29.1ZM258.72-24.9L258.57-12.25 258.57-8.65Q258.62-4.4 256-2.05 253.37 0.3 248.47 0.3L248.47 0.3Q243.62 0.3 241.07-2.02 238.52-4.35 238.62-8.65L238.62-8.65 238.67-12.45 238.62-24.9 242.37-24.9 242.17-9.25Q242.12-6.1 243.75-4.5 245.37-2.9 248.62-2.9L248.62-2.9Q251.82-2.9 253.47-4.5 255.12-6.1 255.07-9.25L255.07-9.25 254.92-24.9 258.72-24.9ZM278.32-10.05Q281.37-5.4 285.07-0.9L285.07-0.9 285.02-0.4Q282.92 0.25 281.57 0.35L281.57 0.35 280.92-0.05Q277.12-5.8 275.17-9.1L275.17-9.1 270.47-9.05 270.47-7.8 270.57 0 266.87 0 267.02-7.5 266.87-24.9 275.37-24.95Q279.32-24.95 281.45-23.1 283.57-21.25 283.57-17.75L283.57-17.75Q283.57-15.2 282.2-13.2 280.82-11.2 278.32-10.05L278.32-10.05ZM270.57-21.9L270.52-12.15 275.22-12Q279.67-13.25 279.67-17.45L279.67-17.45Q279.67-19.65 278.37-20.75 277.07-21.85 274.42-21.95L274.42-21.95 270.57-21.9ZM328.67-32.05L331.82 0 328.22 0 327.47-9.75 325.77-25.7 325.42-25.7 316.52-3.7 313.22-3.7 304.77-25.7 304.37-25.7 302.67-10.05 301.82 0 298.42 0 301.77-32.05 306.32-32.05 307.97-27.15 314.92-8.9 315.22-8.9 322.52-27.45 324.17-32.05 328.67-32.05ZM343.11-24.9L342.96-7.8 343.06 0 339.36 0 339.51-7.5 339.36-24.9 343.11-24.9ZM359.66-25.15Q362.71-25.15 365.76-23.95L365.76-23.95 365.11-20.25 364.51-20.1Q363.11-21.2 361.86-21.73 360.61-22.25 359.26-22.25L359.26-22.25Q357.11-22.25 355.86-21.13 354.61-20 354.61-18.55L354.61-18.55Q354.61-17.1 355.84-16.2 357.06-15.3 359.61-14.2L359.61-14.2Q361.86-13.2 363.19-12.4 364.51-11.6 365.49-10.28 366.46-8.95 366.46-7.05L366.46-7.05Q366.46-5.1 365.41-3.43 364.36-1.75 362.34-0.73 360.31 0.3 357.51 0.3L357.51 0.3Q355.76 0.3 353.84-0.13 351.91-0.55 350.26-1.4L350.26-1.4 350.71-5.35 351.21-5.55Q352.61-4.15 354.49-3.38 356.36-2.6 357.96-2.6L357.96-2.6Q360.06-2.6 361.41-3.73 362.76-4.85 362.76-6.45L362.76-6.45Q362.76-7.95 361.54-8.85 360.31-9.75 357.71-10.95L357.71-10.95Q355.56-11.9 354.19-12.7 352.81-13.5 351.86-14.83 350.91-16.15 350.91-18.05L350.91-18.05Q350.91-20.05 351.99-21.65 353.06-23.25 355.04-24.2 357.01-25.15 359.66-25.15L359.66-25.15ZM380.91-25.15Q383.96-25.15 387.01-23.95L387.01-23.95 386.36-20.25 385.76-20.1Q384.36-21.2 383.11-21.73 381.86-22.25 380.51-22.25L380.51-22.25Q378.36-22.25 377.11-21.13 375.86-20 375.86-18.55L375.86-18.55Q375.86-17.1 377.08-16.2 378.31-15.3 380.86-14.2L380.86-14.2Q383.11-13.2 384.43-12.4 385.76-11.6 386.73-10.28 387.71-8.95 387.71-7.05L387.71-7.05Q387.71-5.1 386.66-3.43 385.61-1.75 383.58-0.73 381.56 0.3 378.76 0.3L378.76 0.3Q377.01 0.3 375.08-0.13 373.16-0.55 371.51-1.4L371.51-1.4 371.96-5.35 372.46-5.55Q373.86-4.15 375.73-3.38 377.61-2.6 379.21-2.6L379.21-2.6Q381.31-2.6 382.66-3.73 384.01-4.85 384.01-6.45L384.01-6.45Q384.01-7.95 382.78-8.85 381.56-9.75 378.96-10.95L378.96-10.95Q376.81-11.9 375.43-12.7 374.06-13.5 373.11-14.83 372.16-16.15 372.16-18.05L372.16-18.05Q372.16-20.05 373.23-21.65 374.31-23.25 376.28-24.2 378.26-25.15 380.91-25.15L380.91-25.15ZM398.56-24.9L398.41-7.8 398.51 0 394.81 0 394.96-7.5 394.81-24.9 398.56-24.9ZM416.7-25.2Q422.15-25.2 425.08-22 428-18.8 428-12.95L428-12.95Q428-6.6 424.88-3.13 421.75 0.35 415.95 0.35L415.95 0.35Q410.55 0.35 407.6-2.93 404.65-6.2 404.65-12.25L404.65-12.25Q404.65-18.45 407.8-21.83 410.95-25.2 416.7-25.2L416.7-25.2ZM416.35-22.05Q412.4-22.05 410.48-19.8 408.55-17.55 408.55-12.7L408.55-12.7Q408.55-7.5 410.45-5.15 412.35-2.8 416.25-2.8L416.25-2.8Q420.25-2.8 422.2-5.1 424.15-7.4 424.15-12.3L424.15-12.3Q424.15-17.35 422.23-19.7 420.3-22.05 416.35-22.05L416.35-22.05ZM455.55-25L455.4-7.45 455.45 0 451.45 0 438.35-19 438.1-19 438.05-8.3 438.15 0 434.75 0 434.9-7.35 434.8-24.9 438.75-24.9 451.85-5.9 452.2-5.9 452.1-24.75 455.55-25Z" opacity="1" transform="matrix(1,0,0,1,0,0)" fill="#000000" class="slogan-text-1" data-fill-palette-color="secondary" id="text-1"></path></svg></g></svg></g></svg></g></svg></g><g transform="matrix(1,0,0,1,408.60054378719167,0)"><svg viewBox="0 0 121.07382555044106 121.07382555044106" height="121.07382555044106" width="121.07382555044106"><g data-palette-color="#374151"><rect width="33.093512317120556" height="121.07382555044106" fill="#000000" stroke="transparent" data-fill-palette-color="accent" x="0" fill-opacity="1"></rect><rect width="33.093512317120556" height="121.07382555044106" fill="#000000" stroke="transparent" data-fill-palette-color="accent" x="40.35794185014702" fill-opacity="0.75"></rect><rect width="33.093512317120556" height="121.07382555044106" fill="#000000" stroke="transparent" data-fill-palette-color="accent" x="80.71588370029404" fill-opacity="0.5"></rect></g></svg></g></svg></g><defs></defs></svg><rect width="395.52" height="90.40860244303335" fill="none" stroke="none" visibility="hidden"></rect></g></svg></g></svg>